{
	"asset":{
		"generator":"Khronos glTF Blender I/O v4.1.62",
		"version":"2.0"
	},
	"scene":0,
	"scenes":[
		{
			"name":"Scene",
			"nodes":[
				0,
				1,
				2,
				3,
				4,
				5,
				6,
				7,
				8,
				9,
				10,
				11,
				12,
				13,
				14,
				15,
				16
			]
		}
	],
	"nodes":[
		{
			"mesh":0,
			"name":"\u9525\u4f53",
			"rotation":[
				0,
				0,
				0.06785894930362701,
				0.9976950287818909
			],
			"scale":[
				1.8072048425674438,
				1.8072048425674438,
				1.8072043657302856
			],
			"translation":[
				0.320528507232666,
				-1.7323799133300781,
				0
			]
		},
		{
			"mesh":1,
			"name":"\u7403\u4f53.005",
			"scale":[
				0.4792851507663727,
				0.4792851507663727,
				0.4792851507663727
			],
			"translation":[
				0.559753954410553,
				-0.12555228173732758,
				0
			]
		},
		{
			"mesh":2,
			"name":"\u7acb\u65b9\u4f53",
			"rotation":[
				-0.06994754076004028,
				0.49441978335380554,
				-0.30229759216308594,
				0.8119561672210693
			],
			"scale":[
				0.7331442832946777,
				0.733144223690033,
				0.10267824679613113
			],
			"translation":[
				-0.7120161652565002,
				0.3296155035495758,
				0.7612671256065369
			]
		},
		{
			"mesh":3,
			"name":"\u7acb\u65b9\u4f53.001",
			"rotation":[
				0.09432590752840042,
				0.4102074205875397,
				0.2742815911769867,
				0.8646399974822998
			],
			"scale":[
				0.2665877938270569,
				3.655482053756714,
				1.6909630298614502
			],
			"translation":[
				0.46690866351127625,
				0.6369879245758057,
				-0.6240162253379822
			]
		},
		{
			"mesh":4,
			"name":"\u7acb\u65b9\u4f53.002",
			"rotation":[
				0.09432589262723923,
				0.41020745038986206,
				0.2742815911769867,
				0.8646399974822998
			],
			"scale":[
				0.29685452580451965,
				1.4169954061508179,
				2.613375663757324
			],
			"translation":[
				0.9454177618026733,
				-0.6058801412582397,
				-1.2933266162872314
			]
		},
		{
			"mesh":5,
			"name":"\u73af\u4f53.006",
			"rotation":[
				0.596977710723877,
				0.18774031102657318,
				0.2798338532447815,
				0.7280551195144653
			],
			"translation":[
				-0.9164621829986572,
				-0.05276614427566528,
				0.6267533898353577
			]
		},
		{
			"mesh":6,
			"name":"\u7403\u4f53.001",
			"scale":[
				0.8459694385528564,
				0.8459694385528564,
				0.8459694385528564
			],
			"translation":[
				-0.21799038350582123,
				0.5262506008148193,
				0.9252947568893433
			]
		},
		{
			"mesh":7,
			"name":"\u7403\u4f53.002",
			"scale":[
				0.8459694385528564,
				0.8459694385528564,
				0.8459694385528564
			],
			"translation":[
				-1.207633137702942,
				0.7675657868385315,
				0.6481001377105713
			]
		},
		{
			"mesh":8,
			"name":"\u7403\u4f53.003",
			"scale":[
				-0.39808493852615356,
				-0.39808493852615356,
				-0.39808493852615356
			],
			"translation":[
				-1.1218496561050415,
				0.7250047922134399,
				0
			]
		},
		{
			"mesh":9,
			"name":"\u7403\u4f53.004",
			"scale":[
				-0.39808493852615356,
				-0.39808493852615356,
				-0.39808493852615356
			],
			"translation":[
				-0.18897634744644165,
				0.43108582496643066,
				0
			]
		},
		{
			"mesh":10,
			"name":"\u73af\u4f53.003",
			"rotation":[
				-0.11281721293926239,
				0.13754849135875702,
				-0.22395966947078705,
				0.958224892616272
			],
			"scale":[
				0.8073812127113342,
				0.8073812127113342,
				0.8073812127113342
			],
			"translation":[
				0.44808584451675415,
				1.833921194076538,
				-0.3067183792591095
			]
		},
		{
			"mesh":11,
			"name":"\u73af\u4f53.004",
			"rotation":[
				0,
				0,
				0.2320665717124939,
				0.9726999998092651
			],
			"translation":[
				-0.021198973059654236,
				-0.7896617650985718,
				0
			]
		},
		{
			"mesh":12,
			"name":"\u7403\u4f53",
			"rotation":[
				0,
				0,
				-0.2393263429403305,
				0.9709392189979553
			],
			"scale":[
				1.0484291315078735,
				1.2895828485488892,
				1.048429250717163
			],
			"translation":[
				-0.34354859590530396,
				0.5376761555671692,
				-0.0474230982363224
			]
		},
		{
			"name":"\u5706\u73af"
		},
		{
			"mesh":13,
			"name":"\u73af\u4f53",
			"rotation":[
				-0.11564566940069199,
				0.029065432026982307,
				-0.2006358504295349,
				0.9723820090293884
			],
			"scale":[
				1.1244783401489258,
				1.5501867532730103,
				1.1244784593582153
			],
			"translation":[
				-0.09419174492359161,
				1.2375785112380981,
				-0.0931006446480751
			]
		},
		{
			"mesh":14,
			"name":"\u73af\u4f53.001",
			"rotation":[
				-0.11943195760250092,
				0.02943876013159752,
				-0.2375088781118393,
				0.9635657072067261
			],
			"scale":[
				-0.8016555309295654,
				-0.8016557097434998,
				-0.8016555309295654
			],
			"translation":[
				0.28154051303863525,
				1.6700690984725952,
				-0.20459800958633423
			]
		},
		{
			"mesh":15,
			"name":"\u73af\u4f53.002",
			"rotation":[
				0,
				0,
				0.2320665866136551,
				0.9726999998092651
			],
			"scale":[
				1.2676194906234741,
				1.2676194906234741,
				1.2676194906234741
			],
			"translation":[
				0.1165943592786789,
				-1.075847864151001,
				0
			]
		}
	],
	"materials":[
		{
			"doubleSided":true,
			"name":"clothes",
			"pbrMetallicRoughness":{
				"baseColorFactor":[
					0.7199741005897522,
					0.38393470644950867,
					0.12430574744939804,
					1
				],
				"metallicFactor":0,
				"roughnessFactor":0.5
			}
		},
		{
			"doubleSided":true,
			"name":"\u5934\u53d1",
			"pbrMetallicRoughness":{
				"baseColorFactor":[
					0.6121319532394409,
					0.17865237593650818,
					0.04012461006641388,
					1
				],
				"metallicFactor":0,
				"roughnessFactor":0.5
			}
		},
		{
			"doubleSided":true,
			"name":"\u6750\u8d28.002",
			"pbrMetallicRoughness":{
				"baseColorFactor":[
					0.6496067643165588,
					0.5662920475006104,
					0.5707905292510986,
					1
				],
				"metallicFactor":0,
				"roughnessFactor":0.5
			}
		},
		{
			"doubleSided":true,
			"name":"\u6750\u8d28",
			"pbrMetallicRoughness":{
				"baseColorFactor":[
					0.800000011920929,
					0.800000011920929,
					0.800000011920929,
					1
				],
				"metallicFactor":0,
				"roughnessFactor":0
			}
		},
		{
			"doubleSided":true,
			"name":"\u6750\u8d28.001",
			"pbrMetallicRoughness":{
				"baseColorFactor":[
					0.552004873752594,
					0.4232623279094696,
					0.3419203758239746,
					1
				],
				"metallicFactor":0.6453673839569092,
				"roughnessFactor":0.5
			}
		},
		{
			"doubleSided":true,
			"name":"skin",
			"pbrMetallicRoughness":{
				"baseColorFactor":[
					0.7373077869415283,
					0.39117908477783203,
					0.36969420313835144,
					1
				],
				"metallicFactor":0,
				"roughnessFactor":0.5
			}
		},
		{
			"doubleSided":true,
			"name":"\u84dd\u8272\u5934\u5dfe",
			"pbrMetallicRoughness":{
				"baseColorFactor":[
					0.025835180655121803,
					0.0833408385515213,
					0.43957358598709106,
					1
				],
				"metallicFactor":0.15015974640846252,
				"roughnessFactor":0.5
			}
		}
	],
	"meshes":[
		{
			"name":"\u9525\u4f53",
			"primitives":[
				{
					"attributes":{
						"POSITION":0,
						"NORMAL":1,
						"TEXCOORD_0":2
					},
					"indices":3,
					"material":0
				}
			]
		},
		{
			"name":"\u7403\u4f53.005",
			"primitives":[
				{
					"attributes":{
						"POSITION":4,
						"NORMAL":5,
						"TEXCOORD_0":6
					},
					"indices":7
				}
			]
		},
		{
			"name":"\u7acb\u65b9\u4f53.001",
			"primitives":[
				{
					"attributes":{
						"POSITION":8,
						"NORMAL":9,
						"TEXCOORD_0":10
					},
					"indices":11
				}
			]
		},
		{
			"name":"\u7acb\u65b9\u4f53.002",
			"primitives":[
				{
					"attributes":{
						"POSITION":12,
						"NORMAL":13,
						"TEXCOORD_0":14
					},
					"indices":11,
					"material":1
				}
			]
		},
		{
			"name":"\u7acb\u65b9\u4f53.003",
			"primitives":[
				{
					"attributes":{
						"POSITION":15,
						"NORMAL":16,
						"TEXCOORD_0":17
					},
					"indices":11,
					"material":2
				}
			]
		},
		{
			"name":"\u73af\u4f53.006",
			"primitives":[
				{
					"attributes":{
						"POSITION":18,
						"NORMAL":19,
						"TEXCOORD_0":20
					},
					"indices":21
				}
			]
		},
		{
			"name":"\u7403\u4f53.001",
			"primitives":[
				{
					"attributes":{
						"POSITION":22,
						"NORMAL":23,
						"TEXCOORD_0":24
					},
					"indices":25
				}
			]
		},
		{
			"name":"\u7403\u4f53.002",
			"primitives":[
				{
					"attributes":{
						"POSITION":26,
						"NORMAL":27,
						"TEXCOORD_0":28
					},
					"indices":25,
					"material":3
				}
			]
		},
		{
			"name":"\u7403\u4f53.003",
			"primitives":[
				{
					"attributes":{
						"POSITION":29,
						"NORMAL":30,
						"TEXCOORD_0":31
					},
					"indices":32
				}
			]
		},
		{
			"name":"\u7403\u4f53.004",
			"primitives":[
				{
					"attributes":{
						"POSITION":33,
						"NORMAL":34,
						"TEXCOORD_0":35
					},
					"indices":32
				}
			]
		},
		{
			"name":"\u73af\u4f53.003",
			"primitives":[
				{
					"attributes":{
						"POSITION":36,
						"NORMAL":37,
						"TEXCOORD_0":38
					},
					"indices":39,
					"material":1
				}
			]
		},
		{
			"name":"\u73af\u4f53.004",
			"primitives":[
				{
					"attributes":{
						"POSITION":40,
						"NORMAL":41,
						"TEXCOORD_0":42
					},
					"indices":21,
					"material":4
				}
			]
		},
		{
			"name":"\u7403\u4f53",
			"primitives":[
				{
					"attributes":{
						"POSITION":43,
						"NORMAL":44,
						"TEXCOORD_0":45
					},
					"indices":46,
					"material":5
				}
			]
		},
		{
			"name":"\u73af\u4f53",
			"primitives":[
				{
					"attributes":{
						"POSITION":47,
						"NORMAL":48,
						"TEXCOORD_0":49
					},
					"indices":21,
					"material":6
				}
			]
		},
		{
			"name":"\u73af\u4f53.001",
			"primitives":[
				{
					"attributes":{
						"POSITION":50,
						"NORMAL":51,
						"TEXCOORD_0":52
					},
					"indices":39,
					"material":1
				}
			]
		},
		{
			"name":"\u73af\u4f53.005",
			"primitives":[
				{
					"attributes":{
						"POSITION":53,
						"NORMAL":54,
						"TEXCOORD_0":55
					},
					"indices":21,
					"material":1
				}
			]
		}
	],
	"accessors":[
		{
			"bufferView":0,
			"componentType":5126,
			"count":150,
			"max":[
				0.9491440057754517,
				1,
				0.9465776085853577
			],
			"min":[
				-0.9491440057754517,
				-1,
				-0.949999988079071
			],
			"type":"VEC3"
		},
		{
			"bufferView":1,
			"componentType":5126,
			"count":150,
			"type":"VEC3"
		},
		{
			"bufferView":2,
			"componentType":5126,
			"count":150,
			"type":"VEC2"
		},
		{
			"bufferView":3,
			"componentType":5123,
			"count":432,
			"type":"SCALAR"
		},
		{
			"bufferView":4,
			"componentType":5126,
			"count":287,
			"max":[
				0.37999996542930603,
				0.3799999952316284,
				0.37999993562698364
			],
			"min":[
				-0.37999987602233887,
				-0.3799999952316284,
				-0.3799998462200165
			],
			"type":"VEC3"
		},
		{
			"bufferView":5,
			"componentType":5126,
			"count":287,
			"type":"VEC3"
		},
		{
			"bufferView":6,
			"componentType":5126,
			"count":287,
			"type":"VEC2"
		},
		{
			"bufferView":7,
			"componentType":5123,
			"count":1440,
			"type":"SCALAR"
		},
		{
			"bufferView":8,
			"componentType":5126,
			"count":24,
			"max":[
				0.44999998807907104,
				0.44999998807907104,
				0.44999998807907104
			],
			"min":[
				-0.44999998807907104,
				-0.44999998807907104,
				-0.44999998807907104
			],
			"type":"VEC3"
		},
		{
			"bufferView":9,
			"componentType":5126,
			"count":24,
			"type":"VEC3"
		},
		{
			"bufferView":10,
			"componentType":5126,
			"count":24,
			"type":"VEC2"
		},
		{
			"bufferView":11,
			"componentType":5123,
			"count":36,
			"type":"SCALAR"
		},
		{
			"bufferView":12,
			"componentType":5126,
			"count":24,
			"max":[
				-0.3725156784057617,
				0.011516720056533813,
				0.4263106882572174
			],
			"min":[
				-1.3725156784057617,
				-0.9884833097457886,
				-0.5736892223358154
			],
			"type":"VEC3"
		},
		{
			"bufferView":13,
			"componentType":5126,
			"count":24,
			"type":"VEC3"
		},
		{
			"bufferView":14,
			"componentType":5126,
			"count":24,
			"type":"VEC2"
		},
		{
			"bufferView":15,
			"componentType":5126,
			"count":24,
			"max":[
				-0.28355473279953003,
				-0.7601605653762817,
				0.4523199200630188
			],
			"min":[
				-1.2835547924041748,
				-1.7601605653762817,
				-0.5476799607276917
			],
			"type":"VEC3"
		},
		{
			"bufferView":16,
			"componentType":5126,
			"count":24,
			"type":"VEC3"
		},
		{
			"bufferView":17,
			"componentType":5126,
			"count":24,
			"type":"VEC2"
		},
		{
			"bufferView":18,
			"componentType":5126,
			"count":1885,
			"max":[
				0.18000012636184692,
				0.050000011920928955,
				0.18000012636184692
			],
			"min":[
				-0.18000012636184692,
				-0.050000011920928955,
				-0.18000012636184692
			],
			"type":"VEC3"
		},
		{
			"bufferView":19,
			"componentType":5126,
			"count":1885,
			"type":"VEC3"
		},
		{
			"bufferView":20,
			"componentType":5126,
			"count":1885,
			"type":"VEC2"
		},
		{
			"bufferView":21,
			"componentType":5123,
			"count":10752,
			"type":"SCALAR"
		},
		{
			"bufferView":22,
			"componentType":5126,
			"count":287,
			"max":[
				0.37999996542930603,
				0.3799999952316284,
				0.37999993562698364
			],
			"min":[
				-0.37999987602233887,
				-0.3799999952316284,
				-0.3799998462200165
			],
			"type":"VEC3"
		},
		{
			"bufferView":23,
			"componentType":5126,
			"count":287,
			"type":"VEC3"
		},
		{
			"bufferView":24,
			"componentType":5126,
			"count":287,
			"type":"VEC2"
		},
		{
			"bufferView":25,
			"componentType":5123,
			"count":1440,
			"type":"SCALAR"
		},
		{
			"bufferView":26,
			"componentType":5126,
			"count":287,
			"max":[
				0.37999996542930603,
				0.3799999952316284,
				0.37999993562698364
			],
			"min":[
				-0.37999987602233887,
				-0.3799999952316284,
				-0.3799998462200165
			],
			"type":"VEC3"
		},
		{
			"bufferView":27,
			"componentType":5126,
			"count":287,
			"type":"VEC3"
		},
		{
			"bufferView":28,
			"componentType":5126,
			"count":287,
			"type":"VEC2"
		},
		{
			"bufferView":29,
			"componentType":5126,
			"count":287,
			"max":[
				0.37999996542930603,
				0.3799999952316284,
				0.37999993562698364
			],
			"min":[
				-0.37999987602233887,
				-0.3799999952316284,
				-0.3799998462200165
			],
			"type":"VEC3"
		},
		{
			"bufferView":30,
			"componentType":5126,
			"count":287,
			"type":"VEC3"
		},
		{
			"bufferView":31,
			"componentType":5126,
			"count":287,
			"type":"VEC2"
		},
		{
			"bufferView":32,
			"componentType":5123,
			"count":1440,
			"type":"SCALAR"
		},
		{
			"bufferView":33,
			"componentType":5126,
			"count":287,
			"max":[
				0.37999996542930603,
				0.3799999952316284,
				0.37999993562698364
			],
			"min":[
				-0.37999987602233887,
				-0.3799999952316284,
				-0.3799998462200165
			],
			"type":"VEC3"
		},
		{
			"bufferView":34,
			"componentType":5126,
			"count":287,
			"type":"VEC3"
		},
		{
			"bufferView":35,
			"componentType":5126,
			"count":287,
			"type":"VEC2"
		},
		{
			"bufferView":36,
			"componentType":5126,
			"count":1479,
			"max":[
				0.5800000429153442,
				0.2799999713897705,
				0.578855574131012
			],
			"min":[
				-0.5800000429153442,
				-0.2799999713897705,
				-0.578855574131012
			],
			"type":"VEC3"
		},
		{
			"bufferView":37,
			"componentType":5126,
			"count":1479,
			"type":"VEC3"
		},
		{
			"bufferView":38,
			"componentType":5126,
			"count":1479,
			"type":"VEC2"
		},
		{
			"bufferView":39,
			"componentType":5123,
			"count":8400,
			"type":"SCALAR"
		},
		{
			"bufferView":40,
			"componentType":5126,
			"count":1885,
			"max":[
				0.7900000810623169,
				0.19999997317790985,
				0.7900000810623169
			],
			"min":[
				-0.7900000810623169,
				-0.19999997317790985,
				-0.7900000810623169
			],
			"type":"VEC3"
		},
		{
			"bufferView":41,
			"componentType":5126,
			"count":1885,
			"type":"VEC3"
		},
		{
			"bufferView":42,
			"componentType":5126,
			"count":1885,
			"type":"VEC2"
		},
		{
			"bufferView":43,
			"componentType":5126,
			"count":287,
			"max":[
				1,
				1,
				1
			],
			"min":[
				-0.9999999403953552,
				-1,
				-0.9999999403953552
			],
			"type":"VEC3"
		},
		{
			"bufferView":44,
			"componentType":5126,
			"count":287,
			"type":"VEC3"
		},
		{
			"bufferView":45,
			"componentType":5126,
			"count":287,
			"type":"VEC2"
		},
		{
			"bufferView":46,
			"componentType":5123,
			"count":1440,
			"type":"SCALAR"
		},
		{
			"bufferView":47,
			"componentType":5126,
			"count":1885,
			"max":[
				1.130000114440918,
				0.3299999237060547,
				1.130000114440918
			],
			"min":[
				-1.130000114440918,
				-0.3299999237060547,
				-1.130000114440918
			],
			"type":"VEC3"
		},
		{
			"bufferView":48,
			"componentType":5126,
			"count":1885,
			"type":"VEC3"
		},
		{
			"bufferView":49,
			"componentType":5126,
			"count":1885,
			"type":"VEC2"
		},
		{
			"bufferView":50,
			"componentType":5126,
			"count":1479,
			"max":[
				1.0800001621246338,
				0.2799999713897705,
				1.0778690576553345
			],
			"min":[
				-1.0800001621246338,
				-0.2799999713897705,
				-1.0778690576553345
			],
			"type":"VEC3"
		},
		{
			"bufferView":51,
			"componentType":5126,
			"count":1479,
			"type":"VEC3"
		},
		{
			"bufferView":52,
			"componentType":5126,
			"count":1479,
			"type":"VEC2"
		},
		{
			"bufferView":53,
			"componentType":5126,
			"count":1885,
			"max":[
				0.7900000810623169,
				0.19999997317790985,
				0.7900000810623169
			],
			"min":[
				-0.7900000810623169,
				-0.19999997317790985,
				-0.7900000810623169
			],
			"type":"VEC3"
		},
		{
			"bufferView":54,
			"componentType":5126,
			"count":1885,
			"type":"VEC3"
		},
		{
			"bufferView":55,
			"componentType":5126,
			"count":1885,
			"type":"VEC2"
		}
	],
	"bufferViews":[
		{
			"buffer":0,
			"byteLength":1800,
			"byteOffset":0,
			"target":34962
		},
		{
			"buffer":0,
			"byteLength":1800,
			"byteOffset":1800,
			"target":34962
		},
		{
			"buffer":0,
			"byteLength":1200,
			"byteOffset":3600,
			"target":34962
		},
		{
			"buffer":0,
			"byteLength":864,
			"byteOffset":4800,
			"target":34963
		},
		{
			"buffer":0,
			"byteLength":3444,
			"byteOffset":5664,
			"target":34962
		},
		{
			"buffer":0,
			"byteLength":3444,
			"byteOffset":9108,
			"target":34962
		},
		{
			"buffer":0,
			"byteLength":2296,
			"byteOffset":12552,
			"target":34962
		},
		{
			"buffer":0,
			"byteLength":2880,
			"byteOffset":14848,
			"target":34963
		},
		{
			"buffer":0,
			"byteLength":288,
			"byteOffset":17728,
			"target":34962
		},
		{
			"buffer":0,
			"byteLength":288,
			"byteOffset":18016,
			"target":34962
		},
		{
			"buffer":0,
			"byteLength":192,
			"byteOffset":18304,
			"target":34962
		},
		{
			"buffer":0,
			"byteLength":72,
			"byteOffset":18496,
			"target":34963
		},
		{
			"buffer":0,
			"byteLength":288,
			"byteOffset":18568,
			"target":34962
		},
		{
			"buffer":0,
			"byteLength":288,
			"byteOffset":18856,
			"target":34962
		},
		{
			"buffer":0,
			"byteLength":192,
			"byteOffset":19144,
			"target":34962
		},
		{
			"buffer":0,
			"byteLength":288,
			"byteOffset":19336,
			"target":34962
		},
		{
			"buffer":0,
			"byteLength":288,
			"byteOffset":19624,
			"target":34962
		},
		{
			"buffer":0,
			"byteLength":192,
			"byteOffset":19912,
			"target":34962
		},
		{
			"buffer":0,
			"byteLength":22620,
			"byteOffset":20104,
			"target":34962
		},
		{
			"buffer":0,
			"byteLength":22620,
			"byteOffset":42724,
			"target":34962
		},
		{
			"buffer":0,
			"byteLength":15080,
			"byteOffset":65344,
			"target":34962
		},
		{
			"buffer":0,
			"byteLength":21504,
			"byteOffset":80424,
			"target":34963
		},
		{
			"buffer":0,
			"byteLength":3444,
			"byteOffset":101928,
			"target":34962
		},
		{
			"buffer":0,
			"byteLength":3444,
			"byteOffset":105372,
			"target":34962
		},
		{
			"buffer":0,
			"byteLength":2296,
			"byteOffset":108816,
			"target":34962
		},
		{
			"buffer":0,
			"byteLength":2880,
			"byteOffset":111112,
			"target":34963
		},
		{
			"buffer":0,
			"byteLength":3444,
			"byteOffset":113992,
			"target":34962
		},
		{
			"buffer":0,
			"byteLength":3444,
			"byteOffset":117436,
			"target":34962
		},
		{
			"buffer":0,
			"byteLength":2296,
			"byteOffset":120880,
			"target":34962
		},
		{
			"buffer":0,
			"byteLength":3444,
			"byteOffset":123176,
			"target":34962
		},
		{
			"buffer":0,
			"byteLength":3444,
			"byteOffset":126620,
			"target":34962
		},
		{
			"buffer":0,
			"byteLength":2296,
			"byteOffset":130064,
			"target":34962
		},
		{
			"buffer":0,
			"byteLength":2880,
			"byteOffset":132360,
			"target":34963
		},
		{
			"buffer":0,
			"byteLength":3444,
			"byteOffset":135240,
			"target":34962
		},
		{
			"buffer":0,
			"byteLength":3444,
			"byteOffset":138684,
			"target":34962
		},
		{
			"buffer":0,
			"byteLength":2296,
			"byteOffset":142128,
			"target":34962
		},
		{
			"buffer":0,
			"byteLength":17748,
			"byteOffset":144424,
			"target":34962
		},
		{
			"buffer":0,
			"byteLength":17748,
			"byteOffset":162172,
			"target":34962
		},
		{
			"buffer":0,
			"byteLength":11832,
			"byteOffset":179920,
			"target":34962
		},
		{
			"buffer":0,
			"byteLength":16800,
			"byteOffset":191752,
			"target":34963
		},
		{
			"buffer":0,
			"byteLength":22620,
			"byteOffset":208552,
			"target":34962
		},
		{
			"buffer":0,
			"byteLength":22620,
			"byteOffset":231172,
			"target":34962
		},
		{
			"buffer":0,
			"byteLength":15080,
			"byteOffset":253792,
			"target":34962
		},
		{
			"buffer":0,
			"byteLength":3444,
			"byteOffset":268872,
			"target":34962
		},
		{
			"buffer":0,
			"byteLength":3444,
			"byteOffset":272316,
			"target":34962
		},
		{
			"buffer":0,
			"byteLength":2296,
			"byteOffset":275760,
			"target":34962
		},
		{
			"buffer":0,
			"byteLength":2880,
			"byteOffset":278056,
			"target":34963
		},
		{
			"buffer":0,
			"byteLength":22620,
			"byteOffset":280936,
			"target":34962
		},
		{
			"buffer":0,
			"byteLength":22620,
			"byteOffset":303556,
			"target":34962
		},
		{
			"buffer":0,
			"byteLength":15080,
			"byteOffset":326176,
			"target":34962
		},
		{
			"buffer":0,
			"byteLength":17748,
			"byteOffset":341256,
			"target":34962
		},
		{
			"buffer":0,
			"byteLength":17748,
			"byteOffset":359004,
			"target":34962
		},
		{
			"buffer":0,
			"byteLength":11832,
			"byteOffset":376752,
			"target":34962
		},
		{
			"buffer":0,
			"byteLength":22620,
			"byteOffset":388584,
			"target":34962
		},
		{
			"buffer":0,
			"byteLength":22620,
			"byteOffset":411204,
			"target":34962
		},
		{
			"buffer":0,
			"byteLength":15080,
			"byteOffset":433824,
			"target":34962
		}
	],
	"buffers":[
		{
			"byteLength":448904,
			"uri":"1.bin"
		}
	]
}
